<svg xmlns="http://www.w3.org/2000/svg" viewBox="0 0 588.09 67.64"><defs><style>.cls-1{fill:#fff;}</style></defs><g id="Ebene_2" data-name="Ebene 2"><g id="Ebene_1-2" data-name="Ebene 1"><path class="cls-1" d="M588.07,2.14c0-1.33-.57-2.08-2-2H286.28a6.32,6.32,0,0,0-2.08.09,2.91,2.91,0,0,0-1.43,1.42,6.54,6.54,0,0,0-.1,2.25V63.69c0,3.88,0,3.89,3.83,3.89H584.74c3.25,0,3.35-.09,3.35-3.33V3.35C588.09,3,588.06,2.54,588.07,2.14Zm-250.43,13H322.26c-3,0-3.19.16-3.19,3.14V59.17c0,3-.18,3.17-3.16,3.18h-4.54c-1.51,0-2.12-.68-2.12-2.13V18.44c0-2.74-.23-3-3-3H291.89c-2.23,0-2.55-.35-2.59-2.52V7.87c0-2.19.36-2.53,2.58-2.53h45.28c2.67,0,2.89.26,2.91,2.92V12.8c.06,1.7-.74,2.34-2.43,2.32Zm61.24,47.23a35.71,35.71,0,0,0-5.85,0c-3.92.67-5.76-1.46-7.4-4.54-2.36-4.41-5-8.69-7.62-12.93a3.73,3.73,0,0,0-2.54-1.42c-3.25-.16-6.51,0-9.78-.08-1.57,0-2.2.71-2.19,2.24v14c0,2.34-.32,2.66-2.6,2.66h-5.25a1.69,1.69,0,0,1-1.94-1.42,1.4,1.4,0,0,1,0-.5V8.66c0-3.23.13-3.36,3.34-3.36,6.88,0,13.79-.32,20.64.09,7.18.43,13,3.64,16.53,10.28a17.86,17.86,0,0,1,1.33,14.38,17.12,17.12,0,0,1-6.24,9c-1.86,1.33-2,1.95-.81,4.08,3.12,5.4,6.29,10.76,9.44,16.13.45.79.85,1.61,1.33,2.41Zm59.17,0h-5.24a2.22,2.22,0,0,1-2.27-1.54c-.75-1.83-1.64-3.59-2.39-5.43a2.48,2.48,0,0,0-2.52-1.69H428.16a2.53,2.53,0,0,0-2.67,1.87,40.12,40.12,0,0,1-2.34,5.23,3.47,3.47,0,0,1-2.2,1.54c-2.08.21-4.2,0-6.3.08-1.33,0-1.65-.64-1.18-1.78,1.08-2.66,2.18-5.33,3.29-7.89,1.57-3.74,3.16-7.5,4.76-11.24,2.26-5.33,4.57-10.55,6.81-15.86,1.41-3.32,2.73-6.66,4.09-10,1.11-2.66,2.2-5.33,3.34-8.06a8.29,8.29,0,0,1,1.09-1.34c.88,1.74,1.67,3.08,2.25,4.51,2.37,5.69,4.64,11.44,7,17.12C448,32.44,450,37,452,41.5c1.4,3.26,2.83,6.51,4.2,9.79,1.19,2.84,2.37,5.69,3.49,8.56.85,2,.53,2.45-1.62,2.5ZM513.58,13c0,2.09-.37,2.44-2.48,2.45H486.61c-4.5,0-4.5,0-4.5,4.46v4.9c0,2.67.24,2.85,2.94,2.85h16.79c2.76,0,3,.24,3,3V35.4c0,2.08-.37,2.44-2.48,2.45H485.23c-2.91,0-3.11.2-3.11,3V59.57c0,2.41-.31,2.66-2.73,2.66H475c-1.74.07-2.39-.72-2.38-2.41V8.36c0-2.78.24-3,3-3h35.15c2.55,0,2.83.3,2.84,2.8,0,1.58,0,3.24,0,4.87Zm65.49,34.46a27.19,27.19,0,0,1-11.51,11.6,27.78,27.78,0,0,1-20.23,2.6,27.09,27.09,0,0,1-14.51-8.84,28.26,28.26,0,0,1-6.89-22.2,27,27,0,0,1,9.33-18,28.13,28.13,0,0,1,39,1.34,28.77,28.77,0,0,1,7.17,12.59,52.77,52.77,0,0,1,1.07,7.4C582.85,38.81,581.17,43.3,579.07,47.49Z"/><path class="cls-1" d="M188.48,65c-1.81-3.19-3.7-6.32-5.56-9.48-2.27-3.86-4.5-7.74-6.82-11.58-1-1.59-.89-2,.64-3.11a21.6,21.6,0,0,0,8.6-11.57c2.29-8.16.82-15.62-5.16-21.85A20.3,20.3,0,0,0,164.94.73c-8.52.08-17,0-25.54,0-2.79,0-3,.22-3,3V64.22c0,3.2.12,3.31,3.38,3.31h4.55c2.67,0,2.89-.26,2.89-2.91V46.94c0-2.12.36-2.48,2.43-2.49h12.25A2.94,2.94,0,0,1,164.76,46c3.55,6.07,7.18,12.11,10.66,18.19,1.25,2.16,2.67,3.72,5.47,3.38a58.84,58.84,0,0,1,5.94,0C189.46,67.55,189.82,67.13,188.48,65Zm-18.9-32.53a5.76,5.76,0,0,1-3.13.82c-2.79.12-5.59,0-8.39,0H149.5c-1.65,0-2.3-.71-2.29-2.32V14.18c0-1.62.64-2.34,2.28-2.32h16.6A9.47,9.47,0,0,1,174.77,19c1.52,6.7-.82,10.1-5.15,13.46Z"/><path class="cls-1" d="M218.14,27.79c-.1,1.33-.21,2.13-.22,2.92v33.4c0,2.92-.2,3.11-3,3.12h-5.42c-2.41,0-2.66-.29-2.66-2.76V4c0-.84.1-1.68.16-2.52l.49-.29,43.7,38.19.6-.28c0-.81.2-1.64.2-2.45V3.71c0-3.64,0-3.64,3.73-3.65,1.69,0,3.39.07,5.08,0s2.41.72,2.36,2.41c-.07,2.11,0,4.2,0,6.31V66.45l-.48.26Z"/><path class="cls-1" d="M70.28,33.6V3c0-2.66.25-2.92,2.89-2.92H115c2.66,0,2.86.26,2.88,2.92V8.8c0,1.92-.36,2.47-2.46,2.47h-32c-2.66,0-2.94.24-3,3v9.33c0,2.42.32,2.73,2.67,2.74h21.52c2.81,0,3,.2,3,2.94v6.13c0,2-.36,2.44-2.46,2.44H83.48c-2.9,0-3.1.21-3.11,3.08V53.54c0,2.43.43,2.87,2.87,2.88h31.12c3.34,0,3.43.09,3.43,3.44v5.08c0,1.69-.64,2.36-2.28,2.32H73.44c-3,0-3.16-.19-3.16-3.2Z"/><path class="cls-1" d="M50.86.43C50,1.87,49.27,3.1,48.44,4.18c-4.42,6-8.89,11.93-13.33,17.89q-4.59,6.13-9.23,12.26c-1.34,1.67-1.15,2.3.41,3.86,4.18,4.18,8.32,8.43,12.5,12.63s8.08,8,12.11,12c1.21,1.21,2.36,2.49,3.85,4.07-.69.13-1.39.22-2.08.28H42.18a4.55,4.55,0,0,1-3.52-1.48c-6.13-6.24-12.33-12.39-18.5-18.57l-7.42-7.39a16.63,16.63,0,0,0-1.68-1.33c-.12,1.16-.26,1.93-.26,2.66V64.31c0,2.67-.26,2.91-2.91,2.92H2c-1.34,0-2-.6-1.95-1.9V3.42C0,.18.11.09,3.35.07H8.24c2.22,0,2.54.34,2.56,2.54,0,5.59.22,11.19,0,16.78-.23,4.21,3,5.88,5.33,8.26.16.18,1.33-.22,1.65-.64,1.42-1.69,2.67-3.49,4-5.25q3.45-4.52,6.85-9c2.46-3.25,4.95-6.46,7.3-9.79C37.26,1,38.73-.17,41.26,0S46.38,0,49,.09C49.59.17,50.23.29,50.86.43Z"/><path class="cls-1" d="M384.17,30.16a7.86,7.86,0,0,1-6.67,3.12H366c-2.1,0-2.42-.35-2.45-2.45s0-4.31,0-6.46V17.71c0-1.65.71-2.29,2.31-2.28h11.87a8.16,8.16,0,0,1,7.64,4.64A9.36,9.36,0,0,1,384.17,30.16Z"/><path class="cls-1" d="M572.41,33.88c.23,10.13-8.56,18.28-18.4,18.25a18.28,18.28,0,0,1-.86-36.54h1A18.34,18.34,0,0,1,572.41,33.88Z"/><path class="cls-1" d="M440.57,43.76h-9.79c.64-1.88,1.08-3.38,1.66-4.83,1.05-2.66,2.16-5.26,3.29-7.88a5.42,5.42,0,0,1,1-1.12c.35.35.83.63,1,1q2.31,5.09,4.49,10.21C443.1,43.21,442.7,43.74,440.57,43.76Z"/></g></g></svg>